<svg id="Layer_1" data-name="Layer 1" xmlns="http://www.w3.org/2000/svg" viewBox="0 0 197.36 131.93"><path d="M168.79,0h-5.62a17.87,17.87,0,0,0-15.34,8.73A23.19,23.19,0,0,0,129.7,0h-5.62a23.2,23.2,0,0,0-18.22,8.84A18.06,18.06,0,0,0,90.37,0H84.75A28.49,28.49,0,0,0,56.4,28.55V97A34,34,0,0,0,0,122.6v9.31l34,0H58.77v.05H80.13a28.49,28.49,0,0,0,28.35-28.55V92.15a23.17,23.17,0,0,0,15.6,6h5.62a23.25,23.25,0,0,0,20.57-12.46,28.56,28.56,0,0,0,23.57,12.46h5.62a17.92,17.92,0,0,0,17.9-17.9V28.57A28.61,28.61,0,0,0,168.79,0Zm-135,123.24L9,123.27v0a24.73,24.73,0,0,1,49.45,0Zm65.19-19.93a19.07,19.07,0,0,1-19.07,19.08H74.25a8.83,8.83,0,0,1-8.83-8.83V29A19.07,19.07,0,0,1,84.49,9.93h5.62a8.83,8.83,0,0,1,8.83,8.83Zm44.45-27.72a14,14,0,0,1-13.95,14h-5.62a13.94,13.94,0,0,1-13.95-14V23.88A13.94,13.94,0,0,1,123.82,9.93h5.62a14,14,0,0,1,13.95,14Zm44.43,5.34a8.61,8.61,0,0,1-8.61,8.61h-5.62A19.28,19.28,0,0,1,154.3,70.25V18.54a8.6,8.6,0,0,1,8.61-8.61h5.62a19.29,19.29,0,0,1,19.29,19.29Z"/></svg>